<?xml version="1.0" encoding="utf-8"?>
<!-- Generator: Adobe Illustrator 14.0.0, SVG Export Plug-In . SVG Version: 6.00 Build 43363)  -->
<!DOCTYPE svg PUBLIC "-//W3C//DTD SVG 1.1//EN" "http://www.w3.org/Graphics/SVG/1.1/DTD/svg11.dtd">
<svg version="1.1" id="レイヤー_1" xmlns="http://www.w3.org/2000/svg" xmlns:xlink="http://www.w3.org/1999/xlink" x="0px"
	 y="0px" width="445px" height="352px" viewBox="0 0 445 352" enable-background="new 0 0 445 352" xml:space="preserve">
<g>
	<g>
		<g>
			<path d="M273.054,254.99l-7.601,0.595c-1.714-0.932-3.244-2.055-4.593-3.352c-1.351-1.305-2.735-2.86-4.163-4.673
				c-4.119-5.238-7.537-12.127-10.255-20.663c-2.722-8.54-5.453-17.146-8.201-25.822c-2.748-8.679-6.104-15.535-10.06-20.571
				l-2.3-1.371l-2.557,0.79c-1.172,1.41-1.931,3.555-2.277,6.433c-0.344,2.878-0.902,4.863-1.669,5.96l-3.187,0.303l-1.88-1.457
				c-4.435-5.642-4.562-12.954-0.382-21.944c3.443-7.437,8.339-13.646,14.687-18.636c1.813-1.425,4.199-1.188,7.165,0.721
				c2.965,1.905,5.32,3.967,7.062,6.181c3.722,4.735,9.533,19.479,17.425,44.24c2.866,8.825,5.685,17.695,8.449,26.604
				c0.149-3.54-0.059-14.744-0.632-33.607c-0.569-18.865-0.603-33.06-0.103-42.577c0.887-15.041,3.038-24.637,6.455-28.79
				c2.053-1.123,4.469-1.68,7.248-1.664c2.783,0.011,4.955,0.706,6.526,2.081c6.387,11.437,12.652,24.279,18.795,38.519
				c5.061,11.827,10.219,25.127,15.479,39.9c1.568-15.416,2.571-32.908,2.996-52.471c0.513-22.566,0.17-42.59-1.024-60.067
				c-1.482-21.163-4.013-37.754-7.594-49.769c0.435-1.317,1.368-3.034,2.807-5.139c3.942-4.729,6.45-7.76,7.521-9.092l5.267,1.726
				c3.089,3.929,4.957,22.994,5.608,57.197c0.514,31.537-0.018,63.409-1.592,95.615c-1.707,34.1-3.968,52.991-6.783,56.67
				l-6.538-0.236c-4.176-3.238-8.364-6.384-12.56-9.441c-1.586-2.013-6.137-12.775-13.653-32.292
				c-4.854-12.809-9.719-25.525-14.596-38.151c-0.045,10.305-0.143,20.651-0.291,31.034c-0.262,16.664-0.906,30.046-1.932,40.143
				C278.707,242.073,276.349,251.096,273.054,254.99z"/>
		</g>
		<g>
			<path d="M411.407,118.099v3.147l-22.103,6.268l22.103,8.794v0.637l-22.103,8.691l22.103,6.375v3.124l-30.673-8.813v-0.569
				l23.209-9.104l-23.209-9.279v-0.571L411.407,118.099z"/>
			<path d="M411.407,168.93v3.065h-30.673v-3.065H411.407z"/>
			<path d="M411.407,187.129v3.065h-30.673v-3.065H411.407z"/>
			<path d="M380.734,205.782h30.673v0.664l-23.515,20.417h23.515v3.023h-30.673v-0.688l23.228-20.246h-23.228V205.782z"/>
			<path d="M406.257,275.487l-2.254-2.377c1.684-1.71,2.959-3.584,3.828-5.621c0.868-2.034,1.304-4.021,1.304-5.953
				c0-2.405-0.59-4.694-1.773-6.871c-1.18-2.176-2.784-3.86-4.805-5.056c-2.025-1.195-4.163-1.794-6.416-1.794
				c-2.305,0-4.498,0.619-6.577,1.855c-2.079,1.238-3.712,2.946-4.901,5.13c-1.188,2.185-1.782,4.574-1.782,7.173
				c0,3.158,0.891,5.827,2.67,8.009c1.778,2.182,4.084,3.477,6.921,3.879v-9.78h2.961v13.219c-4.739-0.027-8.505-1.433-11.29-4.223
				c-2.787-2.787-4.182-6.515-4.182-11.189c0-5.671,1.931-10.161,5.795-13.47c2.976-2.542,6.416-3.815,10.323-3.815
				c2.907,0,5.607,0.73,8.111,2.189c2.503,1.459,4.459,3.463,5.868,6.005c1.413,2.547,2.118,5.422,2.118,8.634
				c0,2.6-0.469,5.046-1.407,7.34S408.33,273.303,406.257,275.487z"/>
			<path d="M375.386,116.096h2.479v171.85h-2.479V116.096z"/>
		</g>
		<g>
			<g>
				<path d="M231.912,312.673h1.377l2.743,9.67l3.848-9.67h0.277l3.803,9.67l2.789-9.67h1.366l-3.854,13.419h-0.249l-3.985-10.152
					l-4.057,10.152h-0.251L231.912,312.673z"/>
				<path d="M259.687,322.799l1.079,0.564c-0.355,0.692-0.764,1.253-1.226,1.68c-0.464,0.425-0.981,0.748-1.563,0.971
					c-0.577,0.222-1.229,0.334-1.964,0.334c-1.618,0-2.885-0.531-3.797-1.592c-0.911-1.063-1.369-2.265-1.369-3.601
					c0-1.259,0.387-2.383,1.158-3.366c0.979-1.253,2.292-1.881,3.935-1.881c1.693,0,3.044,0.644,4.055,1.928
					c0.72,0.907,1.084,2.035,1.097,3.394h-8.932c0.027,1.151,0.394,2.098,1.106,2.834c0.711,0.737,1.593,1.106,2.639,1.106
					c0.505,0,0.997-0.087,1.477-0.264c0.475-0.177,0.883-0.41,1.22-0.702C258.934,323.915,259.296,323.448,259.687,322.799z
					 M259.687,320.126c-0.171-0.681-0.42-1.227-0.746-1.632c-0.325-0.409-0.754-0.737-1.29-0.988
					c-0.537-0.249-1.097-0.372-1.689-0.372c-0.976,0-1.813,0.311-2.514,0.938c-0.513,0.458-0.898,1.143-1.157,2.054H259.687
					L259.687,320.126z"/>
				<path d="M264.487,326.089v-13.755h1.281v5.54c0.531-0.659,1.131-1.151,1.795-1.477c0.659-0.323,1.389-0.487,2.177-0.487
					c1.405,0,2.604,0.509,3.596,1.528c0.993,1.022,1.49,2.256,1.49,3.709c0,1.437-0.502,2.664-1.505,3.677
					c-1,1.018-2.207,1.525-3.617,1.525c-0.808,0-1.539-0.172-2.197-0.521c-0.658-0.348-1.236-0.866-1.738-1.561v1.823h-1.281
					V326.089z M269.598,325.115c0.71,0,1.364-0.174,1.967-0.523c0.6-0.351,1.077-0.841,1.433-1.472
					c0.354-0.635,0.531-1.302,0.531-2.009c0-0.705-0.178-1.377-0.536-2.016c-0.356-0.639-0.838-1.136-1.441-1.492
					c-0.603-0.354-1.25-0.533-1.935-0.533c-0.697,0-1.361,0.18-1.989,0.533c-0.628,0.354-1.107,0.836-1.446,1.436
					c-0.336,0.604-0.506,1.282-0.506,2.036c0,1.15,0.378,2.11,1.132,2.884C267.566,324.731,268.494,325.115,269.598,325.115z"/>
				<path d="M289.187,317.249l-0.824,0.851c-0.685-0.663-1.353-0.995-2.003-0.995c-0.415,0-0.771,0.137-1.066,0.409
					c-0.293,0.275-0.444,0.594-0.444,0.96c0,0.321,0.123,0.627,0.367,0.919c0.244,0.3,0.757,0.65,1.536,1.053
					c0.951,0.488,1.597,0.965,1.938,1.421c0.334,0.464,0.501,0.981,0.501,1.561c0,0.815-0.285,1.505-0.859,2.069
					c-0.569,0.564-1.285,0.847-2.144,0.847c-0.576,0-1.122-0.123-1.641-0.372c-0.522-0.251-0.953-0.595-1.292-1.031l0.802-0.912
					c0.651,0.736,1.344,1.104,2.074,1.104c0.513,0,0.949-0.166,1.308-0.494c0.359-0.328,0.538-0.715,0.538-1.159
					c0-0.363-0.118-0.689-0.355-0.975c-0.234-0.282-0.774-0.635-1.607-1.059c-0.897-0.464-1.506-0.918-1.828-1.368
					c-0.323-0.449-0.485-0.965-0.485-1.541c0-0.754,0.257-1.382,0.772-1.88c0.513-0.499,1.163-0.748,1.95-0.748
					C287.339,315.91,288.26,316.358,289.187,317.249z"/>
				<path d="M300.739,322.799l1.075,0.564c-0.354,0.692-0.76,1.253-1.223,1.68c-0.464,0.425-0.984,0.748-1.562,0.971
					c-0.58,0.222-1.231,0.334-1.966,0.334c-1.618,0-2.883-0.531-3.797-1.592c-0.911-1.063-1.37-2.265-1.37-3.601
					c0-1.259,0.388-2.383,1.159-3.366c0.981-1.253,2.294-1.881,3.936-1.881c1.692,0,3.046,0.644,4.056,1.928
					c0.72,0.907,1.084,2.035,1.095,3.394h-8.93c0.025,1.151,0.391,2.098,1.104,2.834c0.713,0.737,1.591,1.106,2.639,1.106
					c0.507,0,0.999-0.087,1.477-0.264c0.477-0.177,0.884-0.41,1.22-0.702C299.984,323.915,300.347,323.448,300.739,322.799z
					 M300.739,320.126c-0.171-0.681-0.42-1.227-0.747-1.632c-0.324-0.409-0.757-0.737-1.291-0.988
					c-0.538-0.249-1.099-0.372-1.688-0.372c-0.975,0-1.813,0.311-2.515,0.938c-0.511,0.458-0.897,1.143-1.16,2.054H300.739
					L300.739,320.126z"/>
				<path d="M304.975,316.165h1.305v1.45c0.39-0.571,0.798-0.997,1.23-1.279c0.431-0.282,0.882-0.426,1.351-0.426
					c0.352,0,0.727,0.113,1.129,0.337l-0.662,1.078c-0.27-0.114-0.494-0.174-0.676-0.174c-0.426,0-0.837,0.174-1.233,0.525
					c-0.394,0.35-0.695,0.893-0.902,1.631c-0.157,0.563-0.236,1.708-0.236,3.428v3.356h-1.305V316.165L304.975,316.165z"/>
				<path d="M311.072,316.165h1.36l3.333,7.234l3.29-7.234h1.366l-4.543,9.927h-0.238L311.072,316.165z"/>
				<path d="M323.744,312.08c0.29,0,0.54,0.101,0.745,0.309c0.206,0.209,0.309,0.455,0.309,0.75c0,0.285-0.103,0.531-0.309,0.736
					c-0.205,0.208-0.455,0.313-0.745,0.313c-0.282,0-0.53-0.104-0.735-0.313c-0.206-0.205-0.309-0.453-0.309-0.736
					c0-0.294,0.103-0.541,0.309-0.75C323.214,312.181,323.462,312.08,323.744,312.08z M323.11,316.165h1.279v9.927h-1.279V316.165z"
					/>
				<path d="M337.611,318.229l-1.014,0.628c-0.876-1.162-2.07-1.743-3.581-1.743c-1.21,0-2.215,0.39-3.013,1.168
					c-0.799,0.775-1.199,1.721-1.199,2.834c0,0.723,0.187,1.404,0.554,2.041c0.367,0.638,0.872,1.132,1.513,1.483
					c0.639,0.354,1.358,0.53,2.156,0.53c1.458,0,2.647-0.581,3.571-1.742l1.015,0.664c-0.477,0.717-1.114,1.271-1.912,1.663
					c-0.801,0.395-1.711,0.59-2.733,0.59c-1.568,0-2.873-0.498-3.904-1.495c-1.035-0.996-1.553-2.21-1.553-3.641
					c0-0.96,0.243-1.854,0.725-2.676c0.482-0.825,1.149-1.47,1.995-1.931c0.844-0.462,1.789-0.694,2.838-0.694
					c0.656,0,1.29,0.101,1.901,0.302s1.131,0.462,1.557,0.785C336.947,317.319,337.311,317.729,337.611,318.229z"/>
				<path d="M349.354,322.799l1.078,0.564c-0.353,0.692-0.762,1.253-1.226,1.68c-0.46,0.425-0.98,0.748-1.56,0.971
					c-0.581,0.221-1.232,0.334-1.966,0.334c-1.617,0-2.884-0.531-3.795-1.592c-0.914-1.063-1.371-2.265-1.371-3.601
					c0-1.259,0.387-2.383,1.159-3.366c0.979-1.253,2.292-1.881,3.935-1.881c1.692,0,3.044,0.644,4.056,1.928
					c0.718,0.907,1.085,2.035,1.096,3.394h-8.928c0.021,1.151,0.39,2.098,1.103,2.834c0.711,0.737,1.593,1.106,2.641,1.106
					c0.505,0,0.995-0.087,1.474-0.264c0.476-0.177,0.885-0.41,1.219-0.702C348.604,323.914,348.965,323.448,349.354,322.799z
					 M349.354,320.126c-0.171-0.681-0.419-1.227-0.743-1.632c-0.328-0.409-0.758-0.737-1.292-0.988
					c-0.536-0.249-1.102-0.372-1.691-0.372c-0.975,0-1.811,0.311-2.511,0.938c-0.512,0.458-0.897,1.143-1.16,2.054H349.354
					L349.354,320.126z"/>
				<path d="M369.818,318.229l-1.013,0.628c-0.876-1.162-2.066-1.743-3.581-1.743c-1.21,0-2.215,0.39-3.013,1.168
					c-0.797,0.775-1.197,1.721-1.197,2.834c0,0.723,0.183,1.404,0.551,2.041c0.367,0.638,0.872,1.132,1.514,1.483
					c0.641,0.354,1.358,0.53,2.156,0.53c1.456,0,2.649-0.581,3.571-1.742l1.014,0.664c-0.476,0.717-1.114,1.271-1.911,1.663
					c-0.8,0.395-1.713,0.59-2.731,0.59c-1.568,0-2.873-0.498-3.906-1.495c-1.033-0.996-1.551-2.21-1.551-3.641
					c0-0.96,0.243-1.854,0.726-2.676c0.481-0.825,1.147-1.47,1.991-1.931c0.847-0.462,1.792-0.694,2.839-0.694
					c0.658,0,1.291,0.101,1.902,0.302c0.612,0.201,1.132,0.462,1.558,0.785C369.159,317.319,369.52,317.729,369.818,318.229z"/>
				<path d="M373.017,312.334h1.274v13.755h-1.274V312.334z"/>
				<path d="M382.58,315.91c1.528,0,2.797,0.554,3.8,1.659c0.913,1.01,1.369,2.207,1.369,3.587c0,1.387-0.479,2.6-1.448,3.636
					c-0.964,1.037-2.205,1.555-3.723,1.555c-1.523,0-2.77-0.518-3.732-1.555c-0.967-1.036-1.451-2.249-1.451-3.636
					c0-1.375,0.459-2.566,1.371-3.579C379.773,316.467,381.043,315.91,382.58,315.91z M382.575,317.159
					c-1.063,0-1.974,0.395-2.737,1.179c-0.765,0.783-1.146,1.733-1.146,2.846c0,0.719,0.175,1.39,0.521,2.008
					c0.351,0.62,0.82,1.098,1.413,1.436c0.59,0.338,1.238,0.508,1.95,0.508c0.708,0,1.356-0.17,1.949-0.508
					c0.594-0.338,1.061-0.815,1.409-1.436s0.523-1.289,0.523-2.008c0-1.114-0.383-2.063-1.151-2.846
					C384.544,317.554,383.63,317.159,382.575,317.159z"/>
				<path d="M390.885,316.165h1.278v4.635c0,1.13,0.06,1.91,0.185,2.336c0.181,0.607,0.528,1.091,1.042,1.442
					c0.518,0.354,1.132,0.53,1.843,0.53c0.716,0,1.317-0.173,1.813-0.517c0.497-0.345,0.841-0.796,1.028-1.356
					c0.13-0.383,0.194-1.194,0.194-2.436v-4.635h1.303v4.873c0,1.368-0.157,2.399-0.479,3.092c-0.318,0.692-0.8,1.236-1.441,1.63
					c-0.643,0.391-1.447,0.588-2.411,0.588c-0.968,0-1.777-0.197-2.426-0.588c-0.645-0.394-1.129-0.938-1.449-1.643
					c-0.317-0.703-0.479-1.761-0.479-3.171L390.885,316.165L390.885,316.165z"/>
				<path d="M413.25,312.334v13.755h-1.261v-1.705c-0.533,0.653-1.136,1.139-1.801,1.469c-0.664,0.33-1.395,0.492-2.185,0.492
					c-1.406,0-2.604-0.508-3.599-1.527c-0.995-1.021-1.492-2.259-1.492-3.718c0-1.429,0.503-2.653,1.507-3.666
					c1.001-1.018,2.21-1.527,3.62-1.527c0.813,0,1.554,0.176,2.213,0.522c0.657,0.348,1.24,0.866,1.735,1.561v-5.657h1.26v0.002
					H413.25z M408.145,317.144c-0.71,0-1.364,0.174-1.969,0.522c-0.6,0.35-1.079,0.839-1.436,1.47
					c-0.354,0.631-0.533,1.3-0.533,2.005c0,0.699,0.183,1.366,0.54,2.004c0.356,0.64,0.84,1.136,1.444,1.49
					c0.603,0.354,1.253,0.531,1.943,0.531c0.7,0,1.361-0.173,1.986-0.528c0.626-0.352,1.107-0.826,1.444-1.429
					c0.338-0.602,0.507-1.281,0.507-2.037c0-1.146-0.379-2.104-1.134-2.877C410.181,317.529,409.253,317.144,408.145,317.144z"/>
			</g>
		</g>
	</g>
</g>
<g>
	<path fill="#068432" d="M53.846,39.844c-1.066-0.678-3.392-1.696-6.494-1.696c-5.137,0-7.076,3.15-7.076,5.815
		c0,3.635,2.229,5.476,7.172,7.56c5.961,2.52,9.014,5.573,9.014,10.855c0,5.864-4.265,10.371-12.212,10.371
		c-3.344,0-6.979-1.018-8.82-2.326l1.115-3.344c1.987,1.308,4.943,2.277,7.948,2.277c4.943,0,7.851-2.665,7.851-6.639
		c0-3.635-1.987-5.864-6.784-7.802c-5.573-2.084-9.354-5.331-9.354-10.419c0-5.622,4.556-9.741,11.292-9.741
		c3.489,0,6.154,0.872,7.56,1.745L53.846,39.844z"/>
	<path fill="#068432" d="M84.521,38.73H73.617v33.487h-4.022V38.73H58.739v-3.392h25.782V38.73z"/>
	<path fill="#068432" d="M113.984,72.217h-4.265l-3.974-11.97H92.903l-3.877,11.97h-4.119l12.212-36.928h4.652L113.984,72.217z
		 M104.922,57.049l-3.635-10.953c-0.775-2.52-1.405-4.846-1.89-7.027h-0.145c-0.485,2.229-1.163,4.555-1.842,6.881l-3.683,11.098
		H104.922z"/>
	<path fill="#068432" d="M119.361,72.217V35.289h18.609v3.392h-14.587v13.133h13.424v3.344h-13.424v17.059H119.361z"/>
	<path fill="#068432" d="M144.511,72.217V35.289h18.609v3.392h-14.587v13.133h13.424v3.344h-13.424v17.059H144.511z"/>
	<path fill="#068432" d="M167.432,47.308c1.066-2.908,2.568-8.626,3.102-12.406l4.313-0.533c-1.163,4.41-3.489,10.371-4.798,12.6
		L167.432,47.308z"/>
	<path fill="#068432" d="M196.751,39.844c-1.066-0.678-3.392-1.696-6.494-1.696c-5.137,0-7.076,3.15-7.076,5.815
		c0,3.635,2.229,5.476,7.172,7.56c5.961,2.52,9.014,5.573,9.014,10.855c0,5.864-4.265,10.371-12.212,10.371
		c-3.344,0-6.979-1.018-8.82-2.326l1.115-3.344c1.987,1.308,4.943,2.277,7.948,2.277c4.943,0,7.851-2.665,7.851-6.639
		c0-3.635-1.987-5.864-6.785-7.802c-5.573-2.084-9.353-5.331-9.353-10.419c0-5.622,4.556-9.741,11.292-9.741
		c3.489,0,6.155,0.872,7.561,1.745L196.751,39.844z"/>
</g>
</svg>
