<?xml version="1.0" encoding="utf-8"?>
<!-- Generator: Adobe Illustrator 14.0.0, SVG Export Plug-In . SVG Version: 6.00 Build 43363)  -->
<!DOCTYPE svg PUBLIC "-//W3C//DTD SVG 1.1//EN" "http://www.w3.org/Graphics/SVG/1.1/DTD/svg11.dtd">
<svg version="1.1" id="レイヤー_1" xmlns="http://www.w3.org/2000/svg" xmlns:xlink="http://www.w3.org/1999/xlink" x="0px"
	 y="0px" width="24px" height="24px" viewBox="0 0 24 24" enable-background="new 0 0 24 24" xml:space="preserve">
<g>
	<path fill="#376499" d="M18.997,12.113v6.221c0,0.98-0.795,1.776-1.777,1.776H4.778C3.796,20.11,3,19.314,3,18.334V5.892
		C3,4.91,3.796,4.114,4.778,4.114h9.775"/>
	<polyline fill="none" stroke="#FFFFFF" stroke-width="1.7774" stroke-linecap="round" stroke-linejoin="round" points="
		8.333,11.224 10.999,13.89 19.886,5.003 	"/>
	<path fill="#376499" d="M20.739,4.149c-0.347-0.347-0.909-0.347-1.257,0l-0.889,0.889l-1.776,1.777l-0.511,0.485l0.904,1.634
		l0.862-0.862l1.777-1.777l0.889-0.889C21.087,5.059,21.087,4.497,20.739,4.149z"/>
</g>
</svg>
