<?xml version="1.0" encoding="utf-8"?>
<!-- Generator: Adobe Illustrator 14.0.0, SVG Export Plug-In . SVG Version: 6.00 Build 43363)  -->
<!DOCTYPE svg PUBLIC "-//W3C//DTD SVG 1.1//EN" "http://www.w3.org/Graphics/SVG/1.1/DTD/svg11.dtd">
<svg version="1.1" id="_x31_" xmlns="http://www.w3.org/2000/svg" xmlns:xlink="http://www.w3.org/1999/xlink" x="0px" y="0px"
	 width="480px" height="480px" viewBox="0 0 480 480" enable-background="new 0 0 480 480" xml:space="preserve">
<g>
	<rect x="0" y="0" fill="#068432" width="480" height="480"/>
</g>
<g>
	<g>
		<g>
			<path fill="#FFFFFF" d="M288.554,318.99l-7.602,0.595c-1.714-0.933-3.244-2.056-4.593-3.353
				c-1.352-1.305-2.735-2.859-4.163-4.673c-4.119-5.238-7.537-12.127-10.255-20.663c-2.722-8.54-5.453-17.146-8.201-25.821
				c-2.748-8.68-6.104-15.535-10.06-20.571l-2.301-1.371l-2.557,0.79c-1.172,1.41-1.931,3.555-2.277,6.433
				c-0.344,2.878-0.901,4.863-1.669,5.96l-3.187,0.304l-1.88-1.457c-4.436-5.643-4.563-12.954-0.382-21.944
				c3.442-7.438,8.339-13.646,14.687-18.636c1.813-1.426,4.199-1.188,7.165,0.721c2.965,1.905,5.32,3.967,7.062,6.181
				c3.723,4.735,9.533,19.479,17.426,44.24c2.865,8.825,5.685,17.695,8.448,26.604c0.149-3.54-0.059-14.744-0.632-33.607
				c-0.568-18.865-0.603-33.06-0.103-42.577c0.887-15.041,3.038-24.637,6.455-28.79c2.053-1.123,4.469-1.68,7.248-1.664
				c2.782,0.012,4.955,0.706,6.525,2.081c6.388,11.438,12.652,24.279,18.795,38.52c5.062,11.827,10.22,25.127,15.479,39.899
				c1.567-15.416,2.571-32.908,2.996-52.471c0.513-22.566,0.17-42.59-1.024-60.067c-1.481-21.163-4.013-37.754-7.594-49.769
				c0.435-1.317,1.368-3.034,2.807-5.139c3.942-4.729,6.45-7.761,7.521-9.093l5.267,1.727c3.089,3.929,4.957,22.994,5.608,57.197
				c0.514,31.536-0.019,63.408-1.592,95.614c-1.707,34.101-3.969,52.991-6.783,56.67l-6.538-0.235
				c-4.176-3.238-8.364-6.385-12.561-9.441c-1.586-2.013-6.137-12.774-13.652-32.292c-4.854-12.809-9.719-25.524-14.596-38.151
				c-0.046,10.306-0.144,20.651-0.291,31.034c-0.263,16.664-0.906,30.046-1.933,40.144
				C294.207,306.073,291.849,315.096,288.554,318.99z"/>
		</g>
		<g>
			<path fill="#FFFFFF" d="M426.907,182.099v3.147l-22.103,6.268l22.103,8.794v0.637l-22.103,8.691l22.103,6.375v3.124
				l-30.673-8.813v-0.568l23.209-9.104l-23.209-9.278v-0.571L426.907,182.099z"/>
			<path fill="#FFFFFF" d="M426.907,232.93v3.065h-30.673v-3.065H426.907z"/>
			<path fill="#FFFFFF" d="M426.907,251.129v3.064h-30.673v-3.064H426.907z"/>
			<path fill="#FFFFFF" d="M396.234,269.781h30.673v0.664l-23.515,20.417h23.515v3.023h-30.673v-0.688l23.228-20.245h-23.228
				V269.781L396.234,269.781z"/>
			<path fill="#FFFFFF" d="M421.757,339.487l-2.254-2.377c1.685-1.71,2.959-3.584,3.828-5.621c0.868-2.033,1.304-4.021,1.304-5.952
				c0-2.405-0.59-4.694-1.772-6.871c-1.18-2.177-2.784-3.86-4.805-5.057c-2.025-1.194-4.163-1.794-6.416-1.794
				c-2.306,0-4.498,0.619-6.577,1.855c-2.079,1.238-3.712,2.945-4.901,5.13c-1.188,2.185-1.782,4.574-1.782,7.173
				c0,3.158,0.892,5.827,2.67,8.009c1.778,2.183,4.085,3.478,6.922,3.879v-9.779h2.961V341.3c-4.739-0.027-8.505-1.434-11.29-4.223
				c-2.787-2.787-4.183-6.516-4.183-11.189c0-5.671,1.932-10.161,5.795-13.47c2.977-2.542,6.416-3.815,10.323-3.815
				c2.907,0,5.607,0.73,8.111,2.189c2.503,1.459,4.459,3.463,5.868,6.005c1.413,2.547,2.117,5.422,2.117,8.634
				c0,2.6-0.469,5.046-1.406,7.34C425.331,335.065,423.83,337.303,421.757,339.487z"/>
			<path fill="#FFFFFF" d="M390.886,180.096h2.479v171.85h-2.479V180.096z"/>
		</g>
		<g>
			<g>
				<path fill="#FFFFFF" d="M247.412,376.673h1.377l2.743,9.67l3.848-9.67h0.277l3.803,9.67l2.789-9.67h1.366l-3.854,13.419h-0.249
					l-3.985-10.152l-4.057,10.152h-0.252L247.412,376.673z"/>
				<path fill="#FFFFFF" d="M275.187,386.799l1.079,0.563c-0.355,0.692-0.765,1.253-1.227,1.681
					c-0.464,0.425-0.98,0.747-1.563,0.971c-0.577,0.222-1.229,0.334-1.964,0.334c-1.618,0-2.886-0.531-3.798-1.592
					c-0.91-1.063-1.368-2.266-1.368-3.602c0-1.259,0.387-2.383,1.157-3.366c0.979-1.253,2.292-1.881,3.936-1.881
					c1.692,0,3.044,0.645,4.055,1.929c0.72,0.906,1.084,2.034,1.097,3.394h-8.932c0.027,1.151,0.395,2.098,1.106,2.834
					c0.711,0.737,1.593,1.106,2.639,1.106c0.505,0,0.997-0.088,1.477-0.265c0.476-0.177,0.884-0.41,1.221-0.702
					C274.434,387.914,274.796,387.448,275.187,386.799z M275.187,384.126c-0.171-0.682-0.42-1.228-0.746-1.633
					c-0.325-0.408-0.754-0.736-1.29-0.987c-0.537-0.249-1.097-0.372-1.689-0.372c-0.976,0-1.813,0.311-2.514,0.938
					c-0.513,0.458-0.898,1.144-1.157,2.054L275.187,384.126L275.187,384.126z"/>
				<path fill="#FFFFFF" d="M279.987,390.089v-13.755h1.281v5.539c0.53-0.658,1.131-1.15,1.795-1.477
					c0.659-0.323,1.389-0.487,2.177-0.487c1.405,0,2.604,0.51,3.596,1.528c0.993,1.022,1.49,2.256,1.49,3.709
					c0,1.438-0.502,2.664-1.505,3.677c-1,1.019-2.207,1.525-3.617,1.525c-0.808,0-1.539-0.172-2.197-0.521
					c-0.657-0.348-1.235-0.865-1.737-1.561v1.823L279.987,390.089L279.987,390.089L279.987,390.089z M285.098,389.115
					c0.71,0,1.363-0.174,1.967-0.522c0.6-0.352,1.077-0.842,1.433-1.473c0.354-0.635,0.531-1.302,0.531-2.009
					c0-0.705-0.178-1.377-0.536-2.016c-0.355-0.64-0.838-1.136-1.44-1.492c-0.604-0.354-1.25-0.533-1.936-0.533
					c-0.697,0-1.361,0.181-1.989,0.533c-0.628,0.354-1.106,0.836-1.445,1.436c-0.336,0.604-0.507,1.282-0.507,2.036
					c0,1.15,0.379,2.11,1.133,2.885C283.066,388.731,283.994,389.115,285.098,389.115z"/>
				<path fill="#FFFFFF" d="M304.687,381.248l-0.824,0.852c-0.685-0.663-1.353-0.995-2.003-0.995c-0.415,0-0.771,0.137-1.066,0.409
					c-0.293,0.274-0.443,0.594-0.443,0.96c0,0.321,0.123,0.627,0.366,0.919c0.244,0.3,0.758,0.65,1.536,1.053
					c0.951,0.488,1.598,0.965,1.938,1.421c0.334,0.464,0.501,0.981,0.501,1.562c0,0.814-0.285,1.505-0.859,2.068
					c-0.568,0.564-1.285,0.848-2.144,0.848c-0.576,0-1.122-0.123-1.642-0.372c-0.521-0.251-0.952-0.595-1.292-1.031l0.803-0.912
					c0.65,0.736,1.344,1.104,2.073,1.104c0.514,0,0.949-0.166,1.309-0.494c0.358-0.328,0.538-0.715,0.538-1.159
					c0-0.363-0.118-0.688-0.355-0.975c-0.233-0.282-0.773-0.636-1.606-1.06c-0.897-0.464-1.506-0.918-1.828-1.368
					c-0.323-0.448-0.485-0.965-0.485-1.541c0-0.754,0.257-1.382,0.772-1.88c0.513-0.499,1.163-0.748,1.95-0.748
					C302.839,379.909,303.76,380.358,304.687,381.248z"/>
				<path fill="#FFFFFF" d="M316.239,386.799l1.075,0.563c-0.354,0.692-0.76,1.253-1.224,1.681
					c-0.464,0.425-0.983,0.747-1.562,0.971c-0.58,0.222-1.231,0.334-1.966,0.334c-1.618,0-2.883-0.531-3.797-1.592
					c-0.911-1.063-1.37-2.266-1.37-3.602c0-1.259,0.388-2.383,1.159-3.366c0.98-1.253,2.294-1.881,3.936-1.881
					c1.692,0,3.046,0.645,4.056,1.929c0.721,0.906,1.084,2.034,1.096,3.394h-8.931c0.025,1.151,0.392,2.098,1.104,2.834
					c0.713,0.737,1.591,1.106,2.639,1.106c0.507,0,0.999-0.088,1.478-0.265c0.477-0.177,0.884-0.41,1.22-0.702
					C315.484,387.914,315.847,387.448,316.239,386.799z M316.239,384.126c-0.171-0.682-0.42-1.228-0.747-1.633
					c-0.324-0.408-0.757-0.736-1.291-0.987c-0.538-0.249-1.099-0.372-1.688-0.372c-0.976,0-1.813,0.311-2.516,0.938
					c-0.511,0.458-0.896,1.144-1.16,2.054L316.239,384.126L316.239,384.126z"/>
				<path fill="#FFFFFF" d="M320.475,380.164h1.305v1.45c0.39-0.57,0.798-0.997,1.23-1.278c0.431-0.282,0.882-0.427,1.351-0.427
					c0.352,0,0.727,0.113,1.129,0.337l-0.662,1.078c-0.27-0.113-0.494-0.174-0.676-0.174c-0.426,0-0.837,0.174-1.233,0.525
					c-0.394,0.35-0.694,0.893-0.901,1.631c-0.157,0.563-0.236,1.708-0.236,3.428v3.356h-1.305L320.475,380.164L320.475,380.164z"/>
				<path fill="#FFFFFF" d="M326.572,380.164h1.36l3.333,7.234l3.29-7.234h1.365l-4.543,9.928h-0.237L326.572,380.164z"/>
				<path fill="#FFFFFF" d="M339.244,376.079c0.29,0,0.54,0.102,0.745,0.31c0.206,0.209,0.309,0.455,0.309,0.75
					c0,0.285-0.103,0.531-0.309,0.735c-0.205,0.208-0.455,0.313-0.745,0.313c-0.282,0-0.53-0.104-0.735-0.313
					c-0.205-0.204-0.309-0.452-0.309-0.735c0-0.294,0.104-0.541,0.309-0.75C338.714,376.181,338.962,376.079,339.244,376.079z
					 M338.61,380.164h1.279v9.928h-1.279V380.164z"/>
				<path fill="#FFFFFF" d="M353.111,382.229l-1.014,0.628c-0.876-1.162-2.07-1.743-3.581-1.743c-1.21,0-2.216,0.391-3.014,1.168
					c-0.799,0.775-1.198,1.722-1.198,2.834c0,0.724,0.187,1.404,0.554,2.041c0.367,0.639,0.872,1.132,1.513,1.483
					c0.639,0.354,1.358,0.53,2.156,0.53c1.458,0,2.646-0.581,3.571-1.742l1.015,0.664c-0.477,0.717-1.114,1.271-1.912,1.663
					c-0.801,0.395-1.711,0.59-2.732,0.59c-1.568,0-2.873-0.498-3.904-1.495c-1.035-0.996-1.553-2.21-1.553-3.641
					c0-0.961,0.242-1.854,0.725-2.677c0.482-0.825,1.149-1.47,1.995-1.931c0.844-0.462,1.789-0.694,2.838-0.694
					c0.656,0,1.29,0.102,1.901,0.303c0.61,0.2,1.131,0.462,1.557,0.784C352.447,381.319,352.811,381.729,353.111,382.229z"/>
				<path fill="#FFFFFF" d="M364.854,386.799l1.078,0.563c-0.354,0.692-0.763,1.253-1.227,1.681c-0.46,0.425-0.979,0.747-1.56,0.971
					c-0.581,0.221-1.232,0.334-1.966,0.334c-1.617,0-2.885-0.531-3.796-1.592c-0.913-1.063-1.37-2.266-1.37-3.602
					c0-1.259,0.387-2.383,1.158-3.366c0.979-1.253,2.292-1.881,3.936-1.881c1.691,0,3.044,0.645,4.056,1.929
					c0.718,0.906,1.085,2.034,1.096,3.394h-8.928c0.021,1.151,0.391,2.098,1.104,2.834c0.711,0.737,1.593,1.106,2.641,1.106
					c0.505,0,0.995-0.088,1.474-0.265c0.477-0.177,0.886-0.41,1.22-0.702C364.104,387.913,364.465,387.448,364.854,386.799z
					 M364.854,384.126c-0.171-0.682-0.419-1.228-0.743-1.633c-0.328-0.408-0.758-0.736-1.292-0.987
					c-0.536-0.249-1.103-0.372-1.691-0.372c-0.975,0-1.811,0.311-2.511,0.938c-0.512,0.458-0.896,1.144-1.16,2.054L364.854,384.126
					L364.854,384.126z"/>
				<path fill="#FFFFFF" d="M385.318,382.229l-1.013,0.628c-0.876-1.162-2.066-1.743-3.581-1.743c-1.21,0-2.216,0.391-3.014,1.168
					c-0.797,0.775-1.196,1.722-1.196,2.834c0,0.724,0.183,1.404,0.551,2.041c0.367,0.639,0.872,1.132,1.514,1.483
					c0.642,0.354,1.358,0.53,2.156,0.53c1.456,0,2.648-0.581,3.571-1.742l1.014,0.664c-0.476,0.717-1.114,1.271-1.911,1.663
					c-0.8,0.395-1.713,0.59-2.73,0.59c-1.568,0-2.873-0.498-3.906-1.495c-1.033-0.996-1.551-2.21-1.551-3.641
					c0-0.961,0.242-1.854,0.726-2.677c0.481-0.825,1.147-1.47,1.991-1.931c0.847-0.462,1.792-0.694,2.839-0.694
					c0.658,0,1.291,0.102,1.902,0.303c0.611,0.2,1.132,0.462,1.558,0.784C384.659,381.319,385.02,381.729,385.318,382.229z"/>
				<path fill="#FFFFFF" d="M388.517,376.334h1.273v13.755h-1.273V376.334z"/>
				<path fill="#FFFFFF" d="M398.08,379.909c1.528,0,2.797,0.555,3.8,1.659c0.913,1.01,1.369,2.207,1.369,3.587
					c0,1.388-0.479,2.601-1.448,3.636c-0.964,1.037-2.204,1.556-3.723,1.556c-1.522,0-2.77-0.519-3.731-1.556
					c-0.968-1.035-1.451-2.248-1.451-3.636c0-1.375,0.459-2.565,1.371-3.579C395.273,380.467,396.543,379.909,398.08,379.909z
					 M398.075,381.158c-1.063,0-1.974,0.396-2.737,1.18c-0.765,0.782-1.146,1.732-1.146,2.846c0,0.719,0.175,1.39,0.521,2.008
					c0.352,0.62,0.82,1.098,1.413,1.437c0.59,0.338,1.238,0.508,1.95,0.508c0.708,0,1.356-0.17,1.949-0.508
					c0.594-0.339,1.061-0.815,1.409-1.437c0.348-0.621,0.522-1.289,0.522-2.008c0-1.114-0.383-2.063-1.15-2.846
					C400.044,381.554,399.13,381.158,398.075,381.158z"/>
				<path fill="#FFFFFF" d="M406.385,380.164h1.277v4.636c0,1.13,0.061,1.91,0.186,2.336c0.181,0.606,0.527,1.091,1.042,1.441
					c0.518,0.354,1.132,0.53,1.843,0.53c0.716,0,1.316-0.173,1.813-0.517c0.497-0.346,0.842-0.796,1.028-1.356
					c0.13-0.383,0.194-1.193,0.194-2.436v-4.636h1.303v4.873c0,1.368-0.157,2.399-0.479,3.093c-0.317,0.691-0.8,1.235-1.44,1.63
					c-0.644,0.391-1.447,0.588-2.411,0.588c-0.968,0-1.777-0.197-2.426-0.588c-0.646-0.395-1.129-0.938-1.449-1.644
					c-0.317-0.703-0.479-1.761-0.479-3.171L406.385,380.164L406.385,380.164z"/>
				<path fill="#FFFFFF" d="M428.75,376.334v13.755h-1.261v-1.705c-0.533,0.652-1.136,1.139-1.801,1.469
					c-0.664,0.33-1.396,0.492-2.186,0.492c-1.405,0-2.604-0.508-3.599-1.527c-0.995-1.021-1.492-2.259-1.492-3.718
					c0-1.429,0.503-2.653,1.507-3.666c1.001-1.018,2.21-1.527,3.62-1.527c0.813,0,1.554,0.177,2.213,0.522
					c0.657,0.348,1.24,0.866,1.735,1.561v-5.656h1.26v0.002L428.75,376.334L428.75,376.334z M423.645,381.144
					c-0.71,0-1.364,0.174-1.97,0.522c-0.6,0.35-1.078,0.839-1.436,1.47c-0.354,0.631-0.533,1.3-0.533,2.005
					c0,0.699,0.184,1.366,0.54,2.004c0.356,0.64,0.84,1.136,1.444,1.49c0.603,0.354,1.253,0.531,1.942,0.531
					c0.7,0,1.361-0.174,1.986-0.528c0.626-0.353,1.107-0.826,1.444-1.429c0.338-0.603,0.507-1.281,0.507-2.037
					c0-1.146-0.379-2.104-1.134-2.877C425.681,381.529,424.753,381.144,423.645,381.144z"/>
			</g>
		</g>
	</g>
</g>
<g>
	<path fill="#FFFFFF" d="M69.346,103.844c-1.066-0.678-3.393-1.696-6.494-1.696c-5.138,0-7.076,3.15-7.076,5.815
		c0,3.635,2.229,5.476,7.172,7.56c5.961,2.521,9.014,5.573,9.014,10.855c0,5.864-4.265,10.371-12.212,10.371
		c-3.344,0-6.979-1.019-8.819-2.326l1.114-3.344c1.987,1.308,4.943,2.276,7.948,2.276c4.943,0,7.852-2.665,7.852-6.639
		c0-3.635-1.987-5.864-6.784-7.802c-5.573-2.084-9.354-5.331-9.354-10.419c0-5.622,4.557-9.741,11.292-9.741
		c3.489,0,6.154,0.872,7.561,1.745L69.346,103.844z"/>
	<path fill="#FFFFFF" d="M100.021,102.73H89.117v33.487h-4.021V102.73H74.239v-3.392h25.782V102.73z"/>
	<path fill="#FFFFFF" d="M129.484,136.217h-4.265l-3.975-11.97h-12.842l-3.877,11.97h-4.119l12.212-36.928h4.652L129.484,136.217z
		 M120.422,121.049l-3.635-10.953c-0.774-2.52-1.405-4.846-1.89-7.027h-0.146c-0.484,2.229-1.163,4.556-1.842,6.882l-3.683,11.098
		L120.422,121.049L120.422,121.049z"/>
	<path fill="#FFFFFF" d="M134.861,136.217V99.289h18.609v3.392h-14.588v13.133h13.425v3.345h-13.425v17.059H134.861z"/>
	<path fill="#FFFFFF" d="M160.011,136.217V99.289h18.608v3.392h-14.587v13.133h13.424v3.345h-13.424v17.059H160.011z"/>
	<path fill="#FFFFFF" d="M182.932,111.308c1.065-2.908,2.567-8.626,3.102-12.406l4.313-0.532c-1.163,4.409-3.489,10.37-4.799,12.6
		L182.932,111.308z"/>
	<path fill="#FFFFFF" d="M212.251,103.844c-1.065-0.678-3.392-1.696-6.494-1.696c-5.137,0-7.075,3.15-7.075,5.815
		c0,3.635,2.229,5.476,7.172,7.56c5.961,2.521,9.014,5.573,9.014,10.855c0,5.864-4.265,10.371-12.212,10.371
		c-3.344,0-6.979-1.019-8.82-2.326l1.115-3.344c1.987,1.308,4.943,2.276,7.948,2.276c4.942,0,7.851-2.665,7.851-6.639
		c0-3.635-1.986-5.864-6.785-7.802c-5.572-2.084-9.353-5.331-9.353-10.419c0-5.622,4.556-9.741,11.292-9.741
		c3.489,0,6.155,0.872,7.561,1.745L212.251,103.844z"/>
</g>
</svg>
