<?xml version="1.0" encoding="utf-8"?>
<!-- Generator: Adobe Illustrator 14.0.0, SVG Export Plug-In . SVG Version: 6.00 Build 43363)  -->
<!DOCTYPE svg PUBLIC "-//W3C//DTD SVG 1.1//EN" "http://www.w3.org/Graphics/SVG/1.1/DTD/svg11.dtd">
<svg version="1.1" id="レイヤー_1" xmlns="http://www.w3.org/2000/svg" xmlns:xlink="http://www.w3.org/1999/xlink" x="0px"
	 y="0px" width="24px" height="24px" viewBox="0 0 24 24" enable-background="new 0 0 24 24" xml:space="preserve">
<path fill="none" stroke="#212121" stroke-width="2" stroke-linecap="round" stroke-linejoin="round" d="M7,2h10
	c2.762,0,5,2.239,5,5v10c0,2.762-2.238,5-5,5H7c-2.761,0-5-2.238-5-5V7C2,4.239,4.239,2,7,2z"/>
<path fill="none" stroke="#212121" stroke-width="2" stroke-linecap="round" stroke-linejoin="round" d="M16,11.37
	c0.324,2.185-1.185,4.22-3.37,4.544c-2.185,0.323-4.219-1.186-4.543-3.371C7.763,10.358,9.271,8.324,11.457,8
	c0.389-0.058,0.785-0.058,1.173,0C14.373,8.258,15.742,9.627,16,11.37z"/>
<line fill="none" stroke="#212121" stroke-width="2" stroke-linecap="round" stroke-linejoin="round" x1="17.5" y1="6.5" x2="17.51" y2="6.5"/>
</svg>
